<svg width="3593" xmlns="http://www.w3.org/2000/svg" height="351" fill="none"><g style="fill: rgb(0, 0, 0);"><defs><linearGradient id="a" x1="1" y1=".5" x2="0" y2=".5"><stop offset="0" stop-color="#d16622"/><stop offset="1" stop-color="#a31754"/></linearGradient><pattern patternUnits="userSpaceOnUse" x="0" y="0" width="3593" height="238.239" patternTransform="matrix(-1.000000, 0.000000, 0.000000, 1.000000, 3593.000000, -0.000000)" id="b"><rect width="3593" height="238.239" style="fill: url(&quot;#a&quot;);"/></pattern></defs><path d="M3593.000,131.042L3443.531,142.031C3293.344,153.435,2996.562,176.243,2694.750,166.290C2395.094,157.582,2098.312,118.187,1796.500,110.722C1496.844,103.672,1200.062,130.627,898.250,156.545C598.594,182.463,301.812,211.492,150.906,224.554L0.000,238.239L0.000,0.000L149.469,0.000C299.656,0.000,596.438,0.000,898.250,0.000C1197.906,0.000,1494.688,0.000,1796.500,0.000C2096.156,0.000,2392.938,0.000,2694.750,0.000C2994.406,0.000,3291.188,0.000,3442.094,0.000L3593.000,0.000Z" fill="url(#b)" class="fills"/></g></svg>